<svg width="626" height="42" viewBox="0 0 626 42" fill="none" xmlns="http://www.w3.org/2000/svg">
<path d="M0 21C0 9.40202 9.40202 0 21 0H605C616.598 0 626 9.40202 626 21C626 32.598 616.598 42 605 42H21C9.40202 42 0 32.598 0 21Z" fill="#A0AA63"/>
<path fill-rule="evenodd" clip-rule="evenodd" d="M16.1178 19.64C16.1178 18.6629 16.3113 17.6955 16.6873 16.7928C17.0634 15.8901 17.6145 15.07 18.3094 14.3791C19.0042 13.6882 19.8291 13.1402 20.7369 12.7663C21.6447 12.3924 22.6177 12.2 23.6004 12.2C24.583 12.2 25.556 12.3924 26.4638 12.7663C27.3717 13.1402 28.1965 13.6882 28.8914 14.3791C29.5862 15.07 30.1373 15.8901 30.5134 16.7928C30.8894 17.6955 31.083 18.6629 31.083 19.64C31.083 21.6132 30.2946 23.5056 28.8914 24.9008C27.4881 26.2961 25.5849 27.08 23.6004 27.08C21.6159 27.08 19.7126 26.2961 18.3094 24.9008C16.9061 23.5056 16.1178 21.6132 16.1178 19.64ZM23.6004 9.71997C22.0126 9.7202 20.4479 10.0972 19.0362 10.8197C17.6244 11.5421 16.4065 12.5891 15.4836 13.8737C14.5607 15.1583 13.9595 16.6434 13.7299 18.2055C13.5003 19.7676 13.6489 21.3616 14.1635 22.8551C14.6781 24.3486 15.5438 25.6984 16.6885 26.7923C17.8333 27.8862 19.2241 28.6927 20.7454 29.1447C22.2666 29.5967 23.8744 29.6811 25.4351 29.391C26.9958 29.101 28.4643 28.4447 29.7186 27.4768L33.9426 31.6766C34.1778 31.9025 34.4928 32.0275 34.8198 32.0247C35.1468 32.0219 35.4595 31.8914 35.6908 31.6615C35.922 31.4316 36.0531 31.1206 36.056 30.7955C36.0588 30.4704 35.9331 30.1572 35.706 29.9233L31.482 25.7234C32.627 24.2571 33.3352 22.5007 33.526 20.654C33.7169 18.8073 33.3827 16.9444 32.5616 15.2772C31.7405 13.61 30.4654 12.2053 28.8812 11.2229C27.297 10.2405 25.4674 9.71976 23.6004 9.71997ZM23.6004 24.6C24.9234 24.6 26.1922 24.0774 27.1277 23.1472C28.0632 22.217 28.5888 20.9554 28.5888 19.64C28.5888 18.3245 28.0632 17.0629 27.1277 16.1327C26.1922 15.2025 24.9234 14.68 23.6004 14.68C22.2774 14.68 21.0085 15.2025 20.073 16.1327C19.1375 17.0629 18.612 18.3245 18.612 19.64C18.612 20.9554 19.1375 22.217 20.073 23.1472C21.0085 24.0774 22.2774 24.6 23.6004 24.6Z" fill="#FFFCEB"/>
</svg>
