<svg width="305" height="305" viewBox="0 0 305 305" fill="none" xmlns="http://www.w3.org/2000/svg">
<path d="M155.486 266.962C198.155 266.962 232.745 233.191 232.745 191.533C232.745 149.874 198.155 116.103 155.486 116.103C112.817 116.103 78.2271 149.874 78.2271 191.533C78.2271 233.191 112.817 266.962 155.486 266.962Z" fill="#F5F7F4"/>
<path d="M261.744 187.336C261.797 187.874 261.797 188.359 261.851 188.897C261.69 189.112 261.69 189.327 261.905 189.488C261.905 191.641 261.905 193.739 261.905 195.891C261.421 197.021 261.582 198.204 261.636 199.442C260.937 207.996 258.354 216.066 255.341 223.975C250.93 235.65 244.312 246.087 236.887 256.095C236.672 256.364 236.511 256.633 236.134 257.171C237.856 257.224 238.77 258.193 239.631 259.215C242.214 262.336 244.796 265.402 247.379 268.523C248.186 269.545 248.993 270.567 249.315 271.858C249.907 274.441 249.208 276.485 247.325 277.561C244.958 278.906 241.783 278.637 240.008 276.593C236.565 272.558 233.229 268.361 229.893 264.219C229.786 264.057 229.624 263.896 229.463 263.734C207.942 283.856 182.656 294.885 153.119 294.832C123.743 294.778 98.5641 283.802 77.2049 263.681C74.5148 267.554 71.8248 271.536 68.7043 275.248C67.1979 277.023 65.3686 278.207 62.8937 277.938C59.1277 277.561 56.868 273.311 59.02 270.244C61.9791 266.048 65.2072 262.12 68.3815 258.085C68.8119 257.493 69.4037 257.063 70.3721 256.955C68.4353 254.05 66.6598 251.252 64.7768 248.562C57.3522 238.232 52.4025 226.827 49.4434 214.506C43.2562 188.897 47.1837 164.74 59.7195 141.767C63.0014 135.741 66.9827 130.199 71.6634 125.034C68.2739 120.3 64.8306 115.512 61.3335 110.723C60.8493 110.024 60.4189 109.432 59.2891 109.486C44.9779 110.185 32.6574 105.827 22.9731 94.9594C13.5579 84.4144 9.84559 71.8787 11.7824 57.9979C13.0199 49.2283 17.5392 42.1803 25.8246 38.199C31.5275 35.4551 37.7147 35.1861 43.8481 36.0469C62.8399 38.6294 79.8412 53.9628 82.854 73.3313C83.8225 79.5184 83.9301 85.6518 82.4774 91.7852C82.316 92.4308 81.9932 92.9688 82.5312 93.6144C85.9745 97.5957 89.364 101.577 92.9149 105.774C94.5289 104.482 96.143 103.245 97.9184 102.169C107.979 95.9817 118.901 92.0542 130.307 89.3641C132.459 88.8799 133.374 88.1267 133.105 85.867C132.889 84.0916 133.051 82.3161 133.051 80.4331C131.813 80.2717 130.791 80.2717 129.876 80.0565C126.702 79.1956 124.55 76.7208 124.55 73.3313C124.443 65.0459 124.55 56.7605 124.55 48.1522C115.242 52.2411 107.172 50.5195 101.039 43.0411C96.7886 37.8762 96.412 31.5814 99.9091 25.6095C104.375 18.0235 111.315 15.979 119.547 17.5393C124.712 6.88659 139.83 1.56025 151.612 12.9123C156.347 7.69361 162.265 5.64916 169.259 6.83279C176.307 7.96262 180.934 12.3205 184.323 18.2387C191.64 15.71 199.334 18.8843 203.369 24.1568C207.135 29.0528 207.619 36.1007 204.445 41.4271C200.356 48.3675 193.362 51.0037 183.247 49.3359C183.194 50.0891 183.14 50.8423 183.14 51.5955C183.086 57.7289 183.086 63.8623 183.032 69.9956C182.978 77.7968 181.095 79.8413 173.133 80.4869C173.133 83.0693 173.133 85.7056 173.133 88.7185C188.735 92.1618 203.638 98.0261 216.819 107.71C225.912 94.3676 235.327 81.5091 244.85 68.7582C240.277 65.4763 236.511 61.4412 235.22 55.792C233.767 49.6049 234.843 43.5791 237.856 37.9838C244.204 26.2551 253.942 18.2925 266.263 13.558C278.583 8.82344 291.496 15.2258 294.724 29.3218C297.145 39.9206 296.714 50.3581 292.572 60.4728C288.16 71.1792 277.884 78.012 266.747 77.9582C265.025 77.9582 263.304 77.743 261.636 77.0436C253.727 93.3454 245.765 109.54 237.103 125.626C252.006 142.896 260.022 163.449 261.636 186.529C261.69 186.691 261.69 187.014 261.744 187.336ZM194.6 29.9674C190.188 26.6855 185.13 27.3311 179.858 27.4925C176.899 20.5521 172.164 15.441 163.664 17.0012C158.445 17.9697 154.84 21.2516 154.356 27.4925C152.957 24.91 151.397 23.027 149.514 21.5206C145.586 18.3463 141.067 16.4094 135.956 16.8936C129.876 17.4855 126.541 21.5744 124.604 27.1697C121.752 27.2235 118.847 26.6855 115.996 27.1697C112.983 27.7077 109.862 27.9767 107.872 30.8282C107.334 32.9803 107.925 34.7557 109.378 36.3697C113.575 41.1043 120.73 40.5662 124.174 35.2937C125.196 33.6797 127.294 33.0341 129.285 33.6797C131.06 34.2177 130.683 35.7779 130.791 37.0692C130.952 38.8984 130.522 40.5124 129.392 42.0189C129.876 42.5569 130.361 42.9873 130.737 43.4715C133.051 46.8072 136.602 47.9908 140.26 48.6903C143.165 49.2283 148.599 45.516 149.891 42.5031C150.213 41.8037 150.213 40.9967 151.397 41.0505C153.119 41.1581 154.84 41.1043 156.723 41.1043C157.046 45.6774 160.113 47.668 164.256 48.206C167.645 48.6365 170.604 47.399 173.133 45.0856C174.424 43.9557 175.07 42.8797 174.585 40.9967C174.155 39.4364 174.424 37.7148 174.424 36.0469C174.424 35.1861 174.209 33.8949 175.392 33.7873C176.737 33.6797 178.298 33.1955 179.374 34.7019C182.279 38.7908 186.422 40.2972 191.21 38.9522C195.891 37.7686 197.559 33.3031 194.6 29.9674ZM29.8597 46.8072C25.5556 48.4213 23.1883 52.0259 22.2199 56.1148C19.6912 66.9289 21.5205 77.0436 28.5147 85.9746C30.9895 90.4939 34.7556 93.5606 39.2211 95.8203C42.4492 97.4343 45.9463 98.4027 49.6048 99.1021C53.3709 99.8016 56.9756 99.963 60.6879 99.425C65.53 98.7255 68.8119 96.4659 70.7487 91.5162C74.6762 81.6705 74.6762 72.2015 69.1347 63.1628C63.2166 53.4786 54.0165 47.8832 43.0948 45.247C38.6293 44.1709 34.11 44.6014 29.8597 46.8072ZM160.758 97.0039C160.113 96.8963 159.521 96.6811 158.875 96.6811C149.783 96.3045 140.798 96.5735 131.813 98.6179C115.888 102.33 101.416 108.679 89.2564 119.869C77.6353 130.522 68.2739 142.681 62.6785 157.638C57.8364 170.712 55.254 183.947 56.3838 197.881C56.9756 205.521 58.3206 212.946 60.8493 220.155C65.261 232.852 71.8248 244.258 81.1862 253.996C89.2026 262.336 98.026 269.599 108.517 274.656C113.144 276.916 117.986 278.584 122.828 280.305C131.598 283.426 140.583 285.094 149.783 285.685C158.015 286.223 166.085 284.878 174.155 283.21C183.947 281.166 193.093 277.508 201.809 272.773C209.556 268.523 216.497 263.143 222.899 257.009C231.238 249.047 237.91 239.847 242.59 229.409C245.872 222.092 248.724 214.614 250.392 206.597C252.275 197.559 252.651 188.52 251.36 179.535C249.585 167.322 245.603 155.809 239.147 145.102C231.131 131.867 220.532 121.268 207.727 112.768C194.868 104.267 180.719 99.3712 165.493 97.3267C163.933 97.0577 162.372 96.7349 160.758 97.0039ZM262.82 67.8435C271.912 67.8974 277.023 65.6377 280.735 60.9032C286.869 53.102 288.375 36.3159 283.695 27.7077C281.058 22.8656 276.378 20.8211 271.051 22.3814C265.456 23.9954 260.883 27.3849 256.363 30.882C251.737 34.4329 247.809 38.6294 245.442 44.0095C243.021 49.4973 243.882 54.447 247.863 59.1277C252.49 64.6155 258.031 67.6283 262.82 67.8435ZM172.864 71.8249C172.649 66.9827 173.402 62.4096 172.81 57.8365C165.708 57.7827 158.445 59.0739 152.473 53.909C147.2 58.8049 140.906 58.5359 134.557 57.5137C134.557 62.302 134.557 67.0365 134.503 71.771C147.308 71.771 159.898 71.771 172.864 71.8249ZM249.1 78.1196C241.729 89.9559 232.798 100.555 225.105 112.283C226.88 113.951 228.763 115.727 230.646 117.556C231.184 116.372 231.615 115.404 232.099 114.436C237.856 103.406 243.559 92.3232 248.939 81.1325C249.369 80.1641 250.23 79.2494 249.1 78.1196ZM78.4961 117.179C81.509 115.512 83.2307 112.714 85.9745 111.046C82.047 105.236 76.3441 100.662 75.1067 93.2916C73.385 94.3138 72.847 96.1431 71.2868 97.1115C71.9862 98.0799 72.6318 98.9408 73.2236 99.8554C74.7301 102.276 73.923 104.375 71.1792 105.343C70.2107 105.666 69.2961 105.289 67.7359 105.074C71.5558 109.432 74.73 113.575 78.4961 117.179ZM142.843 86.6202C149.837 86.5664 156.562 86.405 163.449 86.7816C163.449 85.2752 163.449 83.8764 163.449 82.3161C156.562 82.5313 149.729 82.4237 142.843 82.0471C142.843 83.6612 142.843 85.06 142.843 86.6202Z" fill="#443333"/>
<path d="M261.636 199.388C261.529 198.204 261.421 197.021 261.905 195.837C262.12 197.074 262.013 198.258 261.636 199.388Z" fill="#6B7C7D"/>
<path d="M261.744 187.336C261.744 187.014 261.69 186.691 261.69 186.368C261.851 186.691 261.959 186.96 261.744 187.336Z" fill="#6B7C7D"/>
<path d="M261.851 189.488C261.636 189.273 261.636 189.112 261.797 188.897C262.012 189.058 262.012 189.273 261.851 189.488Z" fill="#6B7C7D"/>
<path d="M153.226 97.2729C155.647 96.7348 158.23 97.0576 160.758 97.0038C162.372 96.7348 163.933 97.0576 165.439 97.2729C180.665 99.3173 194.815 104.213 207.673 112.714C220.478 121.214 231.023 131.76 239.093 145.048C245.603 155.755 249.531 167.268 251.306 179.481C252.597 188.466 252.221 197.505 250.338 206.543C248.67 214.56 245.818 222.038 242.536 229.355C237.802 239.793 231.184 248.993 222.845 256.955C216.443 263.089 209.502 268.469 201.755 272.719C193.039 277.454 183.893 281.112 174.101 283.157C166.031 284.824 157.961 286.169 149.729 285.631C140.529 285.04 131.544 283.372 122.775 280.251C117.932 278.53 113.09 276.862 108.463 274.602C97.9722 269.545 89.1487 262.335 81.1323 253.942C71.8247 244.204 65.2071 232.799 60.7954 220.101C61.172 219.617 61.3334 218.918 61.0644 218.487C59.827 216.604 60.3112 214.291 59.7194 212.246C59.2352 210.417 58.3744 208.534 58.5896 206.436C58.751 204.66 59.2352 202.885 59.289 201.271C59.4504 197.989 60.1498 194.761 60.2036 191.479C60.2574 182.978 61.1182 174.639 63.3779 166.354C65.9604 156.885 70.4797 148.438 75.537 140.206C78.0119 136.171 81.2399 132.728 84.468 129.285C90.978 122.29 98.4026 116.48 107.011 112.014C112.014 109.378 117.018 106.849 122.398 105.02M153.926 273.903C158.391 273.903 162.857 273.634 167.268 272.988C181.364 270.944 194.384 266.048 206.005 257.978C215.905 251.145 223.921 242.268 230.108 231.938C238.501 217.949 242.805 202.831 241.299 186.368C240.008 171.895 235.327 158.714 226.88 146.77C222.738 140.906 218.111 135.633 212.73 130.953C204.983 124.227 196.267 119.17 186.852 115.189C181.579 112.983 176.038 111.799 170.604 110.454C162.265 108.41 153.872 107.979 145.317 108.948C137.14 109.862 129.177 111.853 121.699 114.973C116.856 116.964 112.068 119.439 107.603 122.506C99.5862 128.155 92.054 134.288 86.1897 142.251C83.4458 145.963 80.4867 149.514 78.6575 153.872C76.6668 158.714 73.9768 163.233 72.2013 168.129C70.8025 172.003 70.1031 176.253 69.5112 180.342C67.8434 192.394 69.1346 204.23 73.0621 215.636C77.0972 227.365 83.0154 238.125 91.7312 247.217C96.1429 251.844 100.877 256.095 106.096 259.645C109.916 262.282 114.166 264.326 118.47 266.209C129.769 271.32 141.551 273.957 153.926 273.903Z" fill="#F5B47F"/>
<path d="M29.8596 46.8072C34.0561 44.6014 38.6292 44.171 43.0948 45.247C54.0164 47.8833 63.2165 53.4248 69.1884 63.2167C73.8153 70.8026 75.9136 86.674 75.268 94.7981C75.1604 96.4121 75.0528 98.8332 74.4072 100.447C72.4703 105.343 69.565 102.061 64.5077 101.954C60.7954 101.846 53.3708 99.8554 49.6047 99.156C45.9462 98.4566 42.5029 97.5419 39.2211 95.8741C34.7555 93.6144 30.9356 90.4939 28.4608 86.0284C30.1286 86.5664 30.9894 88.0729 32.2269 89.0951C34.2175 90.8168 36.3696 92.2694 38.8982 93.5068C39.0597 91.5162 37.7146 90.8706 36.8538 90.0635C32.7111 86.136 29.3216 81.6705 27.2233 76.4518C25.1251 71.1793 24.2643 65.4763 25.2327 59.7734C25.6093 57.5675 26.6315 55.5231 28.3532 53.7476C30.0748 52.026 32.2269 51.4341 34.2175 50.3581C33.5719 49.2283 32.6573 48.5289 31.4737 48.3137C30.6666 48.0985 30.2362 47.5605 29.8596 46.8072Z" fill="#F5B47F"/>
<path d="M107.925 30.882C109.916 28.0305 113.036 27.7615 116.049 27.2235C118.901 26.7393 121.806 27.2773 124.658 27.2235C126.594 21.6281 129.93 17.5392 136.01 16.9474C141.121 16.4094 145.64 18.4001 149.568 21.5743C151.451 23.0808 153.011 24.9638 154.41 27.5463C154.894 21.3053 158.499 18.0234 163.717 17.055C172.218 15.4948 176.952 20.6059 179.912 27.5463C185.184 27.3849 190.241 26.7393 194.653 30.0212C194.546 30.2364 194.438 30.613 194.223 30.7206C192.017 31.9042 189.703 32.8726 187.605 34.2177C185.292 35.6165 183.14 35.5089 180.88 34.3791C178.62 33.2492 176.63 31.689 174.962 29.806C174.047 28.7837 173.24 28.5685 172.11 29.6445C169.474 32.0656 166.623 33.8949 162.964 34.5943C157.745 35.6165 152.58 36.9615 147.523 38.5756C145.425 39.275 143.273 39.4364 141.175 38.7908C139.399 38.2528 137.677 37.4457 135.848 37.1229C133.535 36.6387 132.136 35.3475 131.49 33.1416C130.898 31.2048 129.607 30.3978 127.67 30.344C127.025 30.344 126.379 30.1826 125.787 30.075C123.581 29.5907 121.86 29.8598 120.515 32.1194C119.008 34.6481 117.879 34.7557 115.081 33.572C112.66 32.5498 110.4 31.3124 107.925 30.882Z" fill="#F5F7F4"/>
<path d="M262.82 67.8436C258.031 67.6822 252.49 64.6155 247.863 59.1278C243.882 54.3933 243.021 49.4973 245.442 44.0096C247.809 38.6295 251.737 34.433 256.364 30.8821C260.883 27.385 265.51 24.0493 271.051 22.3814C276.324 20.8212 281.058 22.8657 283.695 27.7078C288.375 36.3698 286.923 53.1558 280.736 60.9032C277.023 65.584 271.912 67.8974 262.82 67.8436Z" fill="#F5B47F"/>
<path d="M107.925 30.882C110.454 31.3662 112.66 32.5498 114.973 33.5182C117.771 34.7019 118.901 34.5943 120.407 32.0656C121.752 29.8597 123.474 29.5369 125.68 30.0211C126.325 30.1825 126.971 30.2902 127.563 30.2902C129.5 30.344 130.845 31.0972 131.383 33.0878C132.028 35.2399 133.373 36.5849 135.741 37.0691C137.57 37.4457 139.291 38.199 141.067 38.737C143.219 39.3826 145.371 39.2212 147.415 38.5218C152.473 36.9077 157.638 35.5089 162.856 34.5405C166.515 33.841 169.366 31.958 172.003 29.5907C173.133 28.5147 173.94 28.7299 174.854 29.7521C176.522 31.6352 178.513 33.1954 180.772 34.3253C183.086 35.4551 185.238 35.5627 187.497 34.1639C189.596 32.8726 191.909 31.8504 194.115 30.6668C194.33 30.5592 194.384 30.2364 194.545 29.9673C197.505 33.2492 195.837 37.7685 191.21 39.006C186.421 40.2972 182.333 38.8446 179.373 34.7557C178.297 33.303 176.737 33.7334 175.392 33.841C174.209 33.9486 174.424 35.2399 174.424 36.1007C174.424 37.7685 174.155 39.4902 174.585 41.0504C175.069 42.9335 174.424 43.9557 173.133 45.1393C170.55 47.4528 167.591 48.6902 164.255 48.2598C160.113 47.7218 157.046 45.7311 156.723 41.158C154.84 41.158 153.118 41.2118 151.397 41.1042C150.213 41.0504 150.213 41.8574 149.89 42.5569C148.599 45.6235 143.165 49.3358 140.26 48.744C136.601 48.0446 133.05 46.861 130.737 43.5253C130.36 42.9873 129.876 42.5569 129.392 42.0727C130.522 40.5662 130.898 38.8984 130.791 37.1229C130.683 35.8317 131.006 34.2715 129.284 33.7334C127.24 33.0878 125.195 33.7872 124.173 35.3475C120.73 40.62 113.574 41.1042 109.378 36.4235C107.979 34.8095 107.387 33.034 107.925 30.882Z" fill="#F5B47F"/>
<path d="M122.452 105.128C117.072 106.957 112.068 109.486 107.064 112.122C98.51 116.588 91.0316 122.398 84.5217 129.392C81.3474 132.836 78.0655 136.279 75.5906 140.314C70.5871 148.546 66.0678 156.992 63.4315 166.462C61.1719 174.747 60.3111 183.086 60.2573 191.587C60.2573 194.869 59.5578 198.097 59.3426 201.379C59.235 202.993 58.8046 204.822 58.6432 206.544C58.428 208.588 59.2888 210.525 59.773 212.354C60.3649 214.399 59.8806 216.712 61.1181 218.595C61.3871 219.025 61.2257 219.725 60.8491 220.209C58.3204 213 56.9754 205.521 56.3836 197.935C55.3075 184.001 57.8362 170.712 62.6783 157.692C68.2737 142.735 77.5813 130.576 89.2562 119.923C101.415 108.786 115.888 102.384 131.813 98.6718C140.744 96.5735 149.783 96.3583 158.875 96.7349C159.521 96.7349 160.113 96.9501 160.758 97.0577C158.23 97.1115 155.647 96.7887 153.226 97.3267" fill="#F5F7F4"/>
<path d="M172.864 71.8249C159.951 71.7711 147.308 71.7711 134.557 71.7173C134.557 66.9828 134.557 62.2482 134.611 57.4599C141.013 58.4821 147.254 58.7512 152.527 53.8552C158.499 59.0202 165.708 57.7289 172.864 57.7827C173.402 62.4096 172.648 66.9828 172.864 71.8249Z" fill="#F5F7F4"/>
<path d="M29.8599 46.8073C30.2365 47.5067 30.667 48.0447 31.5816 48.2599C32.7114 48.4751 33.6798 49.1745 34.3254 50.3043C32.3348 51.3804 30.1827 51.9184 28.4611 53.6938C26.7395 55.4693 25.7172 57.5137 25.3406 59.7196C24.3722 65.4225 25.233 71.1255 27.3313 76.398C29.4295 81.6167 32.819 86.0823 36.9617 90.0098C37.8225 90.8168 39.1676 91.4624 39.0062 93.453C36.4775 92.2156 34.3254 90.763 32.3348 89.0413C31.0974 87.9653 30.1827 86.5127 28.5687 85.9747C21.6283 77.0436 19.7991 66.929 22.2739 56.1149C23.1886 52.026 25.5558 48.4751 29.8599 46.8073Z" fill="#F5F7F4"/>
<path d="M249.1 78.1196C250.23 79.2495 249.369 80.1641 248.939 81.0787C243.559 92.3232 237.856 103.352 232.099 114.382C231.615 115.296 231.185 116.319 230.647 117.502C228.71 115.673 226.88 113.951 225.105 112.23C232.799 100.555 241.73 89.9559 249.1 78.1196Z" fill="#F5B47F"/>
<path d="M142.843 86.6203C142.843 85.06 142.843 83.6612 142.843 82.101C149.729 82.4776 156.508 82.5314 163.449 82.37C163.449 83.8764 163.449 85.2752 163.449 86.8355C156.562 86.4051 149.837 86.5665 142.843 86.6203Z" fill="#F5B47F"/>
<path d="M153.926 273.903C141.551 273.957 129.769 271.374 118.471 266.371C114.22 264.488 109.97 262.389 106.096 259.807C100.877 256.256 96.143 251.952 91.7312 247.379C83.0154 238.286 77.0973 227.526 73.0622 215.797C69.1347 204.391 67.8434 192.501 69.5113 180.504C70.0493 176.361 70.8025 172.164 72.2013 168.291C73.9768 163.395 76.6668 158.822 78.6575 154.033C80.4867 149.675 83.4458 146.125 86.1897 142.412C92.054 134.45 99.5324 128.316 107.603 122.667C112.014 119.547 116.803 117.126 121.699 115.135C129.231 112.068 137.14 110.024 145.317 109.109C153.872 108.141 162.319 108.571 170.604 110.616C176.092 111.961 181.58 113.144 186.852 115.35C196.267 119.331 204.983 124.389 212.731 131.114C218.111 135.795 222.738 141.067 226.88 146.932C235.273 158.876 239.954 172.057 241.299 186.529C242.805 202.993 238.501 218.111 230.108 232.099C223.921 242.429 215.905 251.252 206.005 258.139C194.33 266.209 181.311 271.105 167.268 273.15C162.857 273.634 158.391 273.849 153.926 273.903ZM209.502 139.991C203.315 134.288 196.429 129.661 188.843 126.003C179.266 121.322 169.151 118.309 158.606 117.879C136.117 117.018 116.318 123.905 100.232 140.045C88.0189 152.312 80.4868 167 78.4423 184.27C76.5054 200.948 81.3476 216.066 89.633 230.324C92.7535 235.65 96.7886 240.169 101.2 244.473C107.28 250.392 114.166 255.072 121.968 258.354C122.29 259.161 123.097 258.785 123.689 259C136.978 264.434 150.644 266.209 164.901 264.165C175.5 262.658 185.453 259.215 194.815 254.158C205.629 248.347 213.968 239.847 220.801 229.732C223.114 226.342 225.266 222.792 226.665 219.079C229.032 213 230.646 206.597 231.453 199.98C232.207 194.169 232.314 188.466 231.615 182.763C230.862 176.415 229.032 170.228 226.396 164.309C222.469 155.056 216.873 146.932 209.502 139.991Z" fill="#443333"/>
<path d="M155.916 246.249C155.916 248.831 156.024 251.468 155.863 254.05C155.701 256.955 154.518 258.139 152.204 258.193C149.945 258.247 147.792 256.579 147.685 254.158C147.523 248.885 147.523 243.613 147.739 238.394C147.846 235.919 149.729 234.413 151.881 234.574C154.41 234.789 155.809 236.296 155.863 238.986C155.916 240.223 155.863 241.461 155.863 242.644C155.863 243.882 155.863 245.119 155.863 246.303C155.863 246.249 155.863 246.249 155.916 246.249Z" fill="#443333"/>
<path d="M190.295 161.243C187.229 159.79 186.045 156.132 188.197 153.549C190.995 150.267 194.115 147.308 197.128 144.241C198.043 143.327 199.334 142.896 200.733 143.058C201.701 143.488 202.724 143.811 203.531 144.618C205.252 146.34 205.575 147.792 204.122 149.568C200.733 153.711 196.859 157.315 192.501 160.489C191.909 160.974 191.102 161.135 190.295 161.243Z" fill="#443333"/>
<path d="M213.861 195.407C211.924 195.407 209.987 195.46 207.996 195.353C206.382 195.245 204.876 194.761 204.069 193.147C203.154 191.264 203.316 189.381 204.392 187.552C204.93 186.691 205.737 186.314 206.759 186.26C210.848 185.938 214.99 185.884 219.079 186.099C222.254 186.314 224.083 188.574 223.921 191.587C223.76 193.954 221.769 195.407 218.595 195.46C217.035 195.46 215.421 195.46 213.861 195.407Z" fill="#443333"/>
<path d="M119.331 157.853C119.17 159.198 118.47 160.543 116.964 161.404C115.565 162.211 114.112 161.996 112.929 161.028C109.001 157.853 105.181 154.571 101.738 150.859C99.7474 148.707 99.8012 146.232 101.469 144.618C103.191 142.95 105.827 142.789 107.925 144.672C111.476 147.846 114.812 151.236 118.201 154.571C118.955 155.378 119.331 156.347 119.331 157.853Z" fill="#443333"/>
<path d="M92.0539 186.099C93.6142 186.099 95.2282 186.099 96.7885 186.099C99.6399 186.153 101.2 187.552 101.415 190.08C101.631 192.501 99.9089 194.653 97.1651 194.922C93.2376 195.299 89.2563 195.299 85.275 194.815C83.0691 194.546 82.1545 192.932 82.2083 189.919C82.3159 187.283 83.1767 186.099 85.4902 185.991C87.6422 185.884 89.7943 185.991 92.0001 185.991C92.0539 185.991 92.0539 186.045 92.0539 186.099Z" fill="#443333"/>
<path d="M145.532 188.897C145.64 189.004 145.586 189.112 145.479 189.219L145.425 189.058L145.532 188.897Z" fill="#F5B47F"/>
<path d="M113.897 227.149C114.92 225.966 115.942 224.728 117.018 223.545C118.901 221.446 120.999 221.124 123.044 222.63C125.034 224.029 125.518 226.773 123.958 229.032C121.699 232.26 119.062 235.273 116.103 237.963C114.435 239.47 112.606 239.093 110.4 237.049C108.463 235.273 108.141 233.821 109.539 231.991C110.831 230.27 112.337 228.71 113.79 227.096C113.79 227.096 113.844 227.096 113.897 227.149Z" fill="#443333"/>
<path d="M194.653 227.903C195.729 228.979 196.859 230.108 197.935 231.184C199.872 233.175 199.979 235.273 198.312 237.21C196.751 239.093 194.061 239.416 191.909 237.694C188.896 235.273 186.153 232.476 183.785 229.409C182.44 227.687 182.924 225.912 185.13 223.867C187.067 222.092 188.52 221.877 190.188 223.383C191.748 224.782 193.2 226.342 194.653 227.849C194.707 227.849 194.653 227.903 194.653 227.903Z" fill="#443333"/>
<path d="M64.5078 101.9L79.088 117.825L85.9746 111.1L75.3219 93.991L64.5078 101.9Z" fill="#F5B47F"/>
<path d="M184.323 210.901L154.84 189.327C153.818 188.574 152.312 188.789 151.558 189.811L150.321 191.533C149.568 192.555 149.783 194.062 150.805 194.815L180.288 216.389C181.311 217.142 182.817 216.927 183.57 215.905L184.808 214.183C185.615 213.107 185.346 211.655 184.323 210.901Z" fill="#443333"/>
<path d="M153.065 199.442C157.314 199.442 160.758 195.997 160.758 191.748C160.758 187.499 157.314 184.054 153.065 184.054C148.816 184.054 145.371 187.499 145.371 191.748C145.371 195.997 148.816 199.442 153.065 199.442Z" fill="#443333"/>
<path d="M154.41 193.416H151.774C150.214 193.416 148.922 192.125 148.922 190.564V128.908C148.922 127.348 150.214 126.057 151.774 126.057H154.41C155.97 126.057 157.262 127.348 157.262 128.908V190.564C157.262 192.125 155.97 193.416 154.41 193.416Z" fill="#443333"/>
</svg>
