<svg width="237" height="101" viewBox="0 0 237 101" fill="none" xmlns="http://www.w3.org/2000/svg">
<path d="M229.48 94.4081C219.767 104.623 216.713 99.9182 202.588 99.9182C188.463 99.9182 188.463 98.5881 174.338 98.5881C160.212 98.5881 160.212 92.3069 146.087 92.3069C131.962 92.3069 131.962 90.7087 117.837 90.7087C103.712 90.7087 103.712 93.6034 89.5864 93.6034C75.4612 93.6034 75.4612 92.6199 61.336 92.6199C47.2108 92.6199 47.2108 98.3423 33.0743 98.3423C18.9491 98.3423 19.4207 101.293 9.70825 91.0775C-0.554414 80.2922 4.95868 80.8398 4.95868 65.9862C4.95868 51.1326 2.5446 51.1326 2.5446 36.279C2.5446 21.4254 -4.79871 17.9719 5.46396 7.18651C15.1764 -3.02884 18.9379 8.96358 33.0631 8.96358C47.1883 8.96358 47.1771 2.0006 61.3023 2.0006C75.4275 2.0006 75.4275 2.77178 89.5527 2.77178C103.678 2.77178 103.678 0 117.803 0C131.928 0 131.928 0.815886 146.054 0.815886C160.179 0.815886 160.179 7.24239 174.304 7.24239C188.429 7.24239 188.429 2.3806 202.566 2.3806C216.702 2.3806 216.455 0.726474 226.167 10.9418C236.43 21.7272 224.337 21.403 224.337 36.2567C224.337 51.1103 231.905 50.652 234.656 65.2486C237.407 79.8451 239.72 83.6004 229.469 94.3969L229.48 94.4081Z" fill="#A0AA63"/>
</svg>
