<svg width="256" height="265" viewBox="0 0 256 265" fill="none" xmlns="http://www.w3.org/2000/svg">
<path d="M0 20C0 8.95429 8.95431 0 20 0H229.6C240.646 0 249.6 8.95431 249.6 20V240.734C249.6 251.78 240.646 260.734 229.6 260.734H20C8.9543 260.734 0 251.78 0 240.734V20Z" fill="#FDE68C"/>
<path fill-rule="evenodd" clip-rule="evenodd" d="M229.6 1H20C9.50659 1 1 9.50658 1 20V240.734C1 251.228 9.50659 259.734 20 259.734H229.6C240.093 259.734 248.6 251.228 248.6 240.734V20C248.6 9.50659 240.093 1 229.6 1ZM20 0C8.95431 0 0 8.95429 0 20V240.734C0 251.78 8.9543 260.734 20 260.734H229.6C240.646 260.734 249.6 251.78 249.6 240.734V20C249.6 8.95431 240.646 0 229.6 0H20Z" fill="black"/>
<path d="M6.93335 25.8652C6.93335 14.8195 15.8877 5.86523 26.9333 5.86523H236C247.046 5.86523 256 14.8195 256 25.8652V245C256 256.046 247.046 265 236 265H26.9333C15.8876 265 6.93335 256.046 6.93335 245V25.8652Z" fill="#FFFCEB"/>
<path fill-rule="evenodd" clip-rule="evenodd" d="M236 7.86523H26.9333C16.9922 7.86523 8.93335 15.9241 8.93335 25.8652V245C8.93335 254.941 16.9922 263 26.9333 263H236C245.941 263 254 254.941 254 245V25.8652C254 15.9241 245.941 7.86523 236 7.86523ZM26.9333 5.86523C15.8877 5.86523 6.93335 14.8195 6.93335 25.8652V245C6.93335 256.046 15.8876 265 26.9333 265H236C247.046 265 256 256.046 256 245V25.8652C256 14.8195 247.046 5.86523 236 5.86523H26.9333Z" fill="#505050"/>
</svg>
