<svg width="48" height="57" viewBox="0 0 48 57" fill="none" xmlns="http://www.w3.org/2000/svg">
<path d="M34.4532 40.2718C25.0147 32.8965 22.8188 32.8148 12.821 39.4145C20.2136 29.998 20.2955 27.8072 13.6803 17.8329C23.1188 25.2082 25.3148 25.2898 35.3125 18.6901C27.9199 28.1066 27.8381 30.2974 34.4532 40.2718Z" fill="#E48B68"/>
<path d="M47.5334 28.7189C25.9695 29.9844 25.117 31.0118 24.0668 56.9751C23.0165 31.005 22.1641 29.9844 0.600098 28.7189C22.1641 27.4534 23.0165 26.426 24.0668 0.462769C25.117 26.4328 25.9695 27.4534 47.5334 28.7189Z" fill="#E48B68"/>
<path d="M39.4248 16.1115C40.163 16.1115 40.7614 15.5144 40.7614 14.778C40.7614 14.0415 40.163 13.4444 39.4248 13.4444C38.6866 13.4444 38.0881 14.0415 38.0881 14.778C38.0881 15.5144 38.6866 16.1115 39.4248 16.1115Z" fill="#E48B68"/>
<path d="M39.4248 44.0002C40.163 44.0002 40.7614 43.4032 40.7614 42.6667C40.7614 41.9302 40.163 41.3332 39.4248 41.3332C38.6866 41.3332 38.0881 41.9302 38.0881 42.6667C38.0881 43.4032 38.6866 44.0002 39.4248 44.0002Z" fill="#E48B68"/>
<path d="M9.8681 44.0002C10.6063 44.0002 11.2048 43.4032 11.2048 42.6667C11.2048 41.9302 10.6063 41.3332 9.8681 41.3332C9.12988 41.3332 8.53144 41.9302 8.53144 42.6667C8.53144 43.4032 9.12988 44.0002 9.8681 44.0002Z" fill="#E48B68"/>
<path d="M11.2048 17.445C11.943 17.445 12.5414 16.848 12.5414 16.1115C12.5414 15.375 11.943 14.778 11.2048 14.778C10.4665 14.778 9.8681 15.375 9.8681 16.1115C9.8681 16.848 10.4665 17.445 11.2048 17.445Z" fill="#E48B68"/>
</svg>
