<svg width="386" height="165" viewBox="0 0 386 165" fill="none" xmlns="http://www.w3.org/2000/svg">
<path d="M373.752 154.231C357.933 170.92 352.959 163.233 329.953 163.233C306.948 163.233 306.948 161.06 283.942 161.06C260.937 161.06 260.937 150.798 237.931 150.798C214.925 150.798 214.925 148.187 191.92 148.187C168.914 148.187 168.914 152.916 145.909 152.916C122.903 152.916 122.903 151.31 99.8974 151.31C76.8918 151.31 76.8918 160.658 53.8679 160.658C30.8623 160.658 31.6304 165.478 15.8118 148.79C-0.90297 131.17 8.07617 132.065 8.07617 107.799C8.07617 83.5335 4.14437 83.5335 4.14437 59.2677C4.14437 35.0019 -7.81562 29.36 8.8991 11.7403C24.7177 -4.9481 30.844 14.6435 53.8496 14.6435C76.8552 14.6435 76.837 3.2683 99.8426 3.2683C122.848 3.2683 122.848 4.52815 145.854 4.52815C168.859 4.52815 168.859 0 191.865 0C214.871 0 214.871 1.33288 237.876 1.33288C260.882 1.33288 260.882 11.8316 283.887 11.8316C306.893 11.8316 306.893 3.8891 329.917 3.8891C352.941 3.8891 352.538 1.18681 368.357 17.8753C385.072 35.4949 365.376 34.9654 365.376 59.2312C365.376 83.497 377.702 82.7483 382.182 106.594C386.663 130.44 390.43 136.575 373.734 154.213L373.752 154.231Z" fill="#D88F6F"/>
<path d="M99.0496 89.5097L110.09 63.4937H114.65L99.0496 98.7738L83.4496 63.4937H88.0096L99.0496 89.5097ZM123.197 97.5738C121.149 97.5738 119.325 97.0938 117.725 96.1337C116.157 95.1417 114.925 93.7817 114.029 92.0537C113.165 90.3257 112.733 88.3257 112.733 86.0537C112.733 83.7497 113.181 81.7337 114.077 80.0057C115.005 78.2777 116.285 76.9337 117.917 75.9737C119.581 75.0137 121.501 74.5337 123.677 74.5337C125.853 74.5337 127.709 74.9977 129.245 75.9257C130.813 76.8217 132.013 78.1177 132.845 79.8137C133.677 81.5097 134.093 83.5257 134.093 85.8617C134.093 86.0857 134.077 86.3257 134.045 86.5817C134.045 86.8057 134.045 86.9497 134.045 87.0137H115.181V83.7497H131.021L129.485 85.9577C129.581 85.7977 129.677 85.5577 129.773 85.2377C129.869 84.8857 129.917 84.5977 129.917 84.3737C129.917 83.0617 129.645 81.9257 129.101 80.9657C128.589 80.0057 127.869 79.2537 126.941 78.7097C126.013 78.1657 124.925 77.8937 123.677 77.8937C122.205 77.8937 120.941 78.2137 119.885 78.8537C118.861 79.4617 118.061 80.3577 117.485 81.5417C116.941 82.6937 116.653 84.1177 116.621 85.8137C116.621 87.5417 116.893 89.0137 117.437 90.2297C117.981 91.4457 118.781 92.3737 119.837 93.0137C120.893 93.6537 122.173 93.9737 123.677 93.9737C125.181 93.9737 126.509 93.6537 127.661 93.0137C128.813 92.3417 129.789 91.3337 130.589 89.9897L133.709 91.9577C132.557 93.8137 131.101 95.2217 129.341 96.1817C127.613 97.1098 125.565 97.5738 123.197 97.5738ZM143.196 75.0137V97.0938H139.356V75.0137H143.196ZM149.868 79.2377C149.356 78.8537 148.892 78.5817 148.476 78.4217C148.06 78.2297 147.532 78.1337 146.892 78.1337C145.932 78.1337 145.18 78.3737 144.636 78.8537C144.092 79.3337 143.708 79.9897 143.484 80.8217C143.292 81.6537 143.196 82.5977 143.196 83.6537H141.468C141.468 81.8937 141.772 80.3417 142.38 78.9977C143.02 77.6217 143.836 76.5337 144.828 75.7337C145.82 74.9337 146.828 74.5337 147.852 74.5337C148.652 74.5337 149.388 74.6457 150.06 74.8697C150.764 75.0617 151.404 75.4617 151.98 76.0697L149.868 79.2377ZM176.44 80.5337H181L193 97.0938H187.96L176.44 80.5337ZM170.44 63.4937H174.52V97.0938H170.44V63.4937ZM172.696 67.0938V63.4937H179.56C181.736 63.4937 183.672 63.9097 185.368 64.7417C187.096 65.5417 188.456 66.6937 189.448 68.1977C190.472 69.7017 190.984 71.4937 190.984 73.5737C190.984 75.6217 190.472 77.4137 189.448 78.9497C188.456 80.4537 187.096 81.6217 185.368 82.4537C183.672 83.2537 181.736 83.6537 179.56 83.6537H172.696V80.0537H179.56C181 80.0537 182.264 79.7977 183.352 79.2857C184.472 78.7737 185.336 78.0377 185.944 77.0777C186.584 76.1177 186.904 74.9497 186.904 73.5737C186.904 72.1977 186.584 71.0297 185.944 70.0697C185.336 69.1097 184.472 68.3737 183.352 67.8617C182.264 67.3497 181 67.0938 179.56 67.0938H172.696ZM205.604 97.5738C203.556 97.5738 201.732 97.0938 200.132 96.1337C198.564 95.1417 197.332 93.7817 196.436 92.0537C195.572 90.3257 195.14 88.3257 195.14 86.0537C195.14 83.7497 195.588 81.7337 196.484 80.0057C197.412 78.2777 198.692 76.9337 200.324 75.9737C201.988 75.0137 203.908 74.5337 206.084 74.5337C208.26 74.5337 210.116 74.9977 211.652 75.9257C213.22 76.8217 214.42 78.1177 215.252 79.8137C216.084 81.5097 216.5 83.5257 216.5 85.8617C216.5 86.0857 216.484 86.3257 216.452 86.5817C216.452 86.8057 216.452 86.9497 216.452 87.0137H197.588V83.7497H213.428L211.892 85.9577C211.988 85.7977 212.084 85.5577 212.18 85.2377C212.276 84.8857 212.324 84.5977 212.324 84.3737C212.324 83.0617 212.052 81.9257 211.508 80.9657C210.996 80.0057 210.276 79.2537 209.348 78.7097C208.42 78.1657 207.332 77.8937 206.084 77.8937C204.612 77.8937 203.348 78.2137 202.292 78.8537C201.268 79.4617 200.468 80.3577 199.892 81.5417C199.348 82.6937 199.06 84.1177 199.028 85.8137C199.028 87.5417 199.3 89.0137 199.844 90.2297C200.388 91.4457 201.188 92.3737 202.244 93.0137C203.3 93.6537 204.58 93.9737 206.084 93.9737C207.588 93.9737 208.916 93.6537 210.068 93.0137C211.22 92.3417 212.196 91.3337 212.996 89.9897L216.116 91.9577C214.964 93.8137 213.508 95.2217 211.748 96.1817C210.02 97.1098 207.972 97.5738 205.604 97.5738ZM223.491 86.0537C223.491 87.5897 223.811 88.9497 224.451 90.1337C225.123 91.3177 226.019 92.2617 227.139 92.9657C228.291 93.6377 229.587 93.9737 231.027 93.9737C232.211 93.9737 233.315 93.7977 234.339 93.4457C235.395 93.0617 236.307 92.5657 237.075 91.9577C237.843 91.3177 238.387 90.6457 238.707 89.9417V94.7417C237.939 95.6377 236.835 96.3417 235.395 96.8537C233.987 97.3338 232.531 97.5738 231.027 97.5738C228.883 97.5738 226.947 97.0777 225.219 96.0857C223.491 95.0937 222.115 93.7337 221.091 92.0057C220.099 90.2457 219.603 88.2617 219.603 86.0537C219.603 83.8137 220.099 81.8297 221.091 80.1017C222.115 78.3737 223.491 77.0137 225.219 76.0217C226.947 75.0297 228.883 74.5337 231.027 74.5337C232.531 74.5337 233.987 74.7897 235.395 75.3017C236.835 75.7817 237.939 76.4697 238.707 77.3657V82.1657C238.387 81.4297 237.843 80.7577 237.075 80.1497C236.307 79.5417 235.395 79.0617 234.339 78.7097C233.315 78.3257 232.211 78.1337 231.027 78.1337C229.587 78.1337 228.291 78.4697 227.139 79.1417C226.019 79.8137 225.123 80.7577 224.451 81.9737C223.811 83.1577 223.491 84.5177 223.491 86.0537ZM253.229 97.5738C251.181 97.5738 249.357 97.0938 247.757 96.1337C246.189 95.1417 244.957 93.7817 244.061 92.0537C243.197 90.3257 242.765 88.3257 242.765 86.0537C242.765 83.7497 243.213 81.7337 244.109 80.0057C245.037 78.2777 246.317 76.9337 247.949 75.9737C249.613 75.0137 251.533 74.5337 253.709 74.5337C255.885 74.5337 257.741 74.9977 259.277 75.9257C260.845 76.8217 262.045 78.1177 262.877 79.8137C263.709 81.5097 264.125 83.5257 264.125 85.8617C264.125 86.0857 264.109 86.3257 264.077 86.5817C264.077 86.8057 264.077 86.9497 264.077 87.0137H245.213V83.7497H261.053L259.517 85.9577C259.613 85.7977 259.709 85.5577 259.805 85.2377C259.901 84.8857 259.949 84.5977 259.949 84.3737C259.949 83.0617 259.677 81.9257 259.133 80.9657C258.621 80.0057 257.901 79.2537 256.973 78.7097C256.045 78.1657 254.957 77.8937 253.709 77.8937C252.237 77.8937 250.973 78.2137 249.917 78.8537C248.893 79.4617 248.093 80.3577 247.517 81.5417C246.973 82.6937 246.685 84.1177 246.653 85.8137C246.653 87.5417 246.925 89.0137 247.469 90.2297C248.013 91.4457 248.813 92.3737 249.869 93.0137C250.925 93.6537 252.205 93.9737 253.709 93.9737C255.213 93.9737 256.541 93.6537 257.693 93.0137C258.845 92.3417 259.821 91.3337 260.621 89.9897L263.741 91.9577C262.589 93.8137 261.133 95.2217 259.373 96.1817C257.645 97.1098 255.597 97.5738 253.229 97.5738ZM266.028 75.0137H277.068V78.6137H266.028V75.0137ZM269.628 67.3337H273.468V97.0938H269.628V67.3337ZM282.647 90.2777C282.647 91.1097 282.839 91.8297 283.223 92.4377C283.639 93.0457 284.199 93.5097 284.903 93.8297C285.639 94.1177 286.471 94.2617 287.399 94.2617C288.583 94.2617 289.639 94.0217 290.567 93.5417C291.527 93.0617 292.279 92.3897 292.823 91.5257C293.399 90.6297 293.687 89.6057 293.687 88.4537L294.455 91.3337C294.455 92.7417 294.023 93.9097 293.159 94.8377C292.327 95.7657 291.287 96.4537 290.039 96.9017C288.823 97.3498 287.607 97.5738 286.391 97.5738C285.047 97.5738 283.783 97.3018 282.599 96.7577C281.447 96.1817 280.519 95.3657 279.815 94.3097C279.111 93.2537 278.759 91.9737 278.759 90.4697C278.759 88.3257 279.511 86.6137 281.015 85.3337C282.551 84.0217 284.679 83.3657 287.399 83.3657C288.999 83.3657 290.327 83.5577 291.383 83.9417C292.471 84.2937 293.335 84.7097 293.975 85.1897C294.615 85.6377 295.047 86.0057 295.271 86.2937V88.5497C294.151 87.7817 292.999 87.2377 291.815 86.9177C290.631 86.5657 289.367 86.3897 288.023 86.3897C286.775 86.3897 285.751 86.5497 284.951 86.8697C284.183 87.1897 283.607 87.6377 283.223 88.2137C282.839 88.7897 282.647 89.4777 282.647 90.2777ZM282.071 80.1017L280.199 77.2697C281.031 76.6617 282.167 76.0537 283.607 75.4457C285.079 74.8377 286.839 74.5337 288.887 74.5337C290.615 74.5337 292.119 74.8057 293.399 75.3497C294.711 75.8617 295.719 76.6137 296.423 77.6057C297.159 78.5977 297.527 79.8137 297.527 81.2537V97.0938H293.687V81.7817C293.687 81.0137 293.559 80.3897 293.303 79.9097C293.047 79.3977 292.679 78.9977 292.199 78.7097C291.751 78.4217 291.223 78.2137 290.615 78.0857C290.007 77.9577 289.367 77.8937 288.695 77.8937C287.607 77.8937 286.615 78.0217 285.719 78.2777C284.855 78.5337 284.119 78.8377 283.511 79.1897C282.903 79.5417 282.423 79.8457 282.071 80.1017Z" fill="white"/>
</svg>
