<svg width="386" height="175" viewBox="0 0 386 175" fill="none" xmlns="http://www.w3.org/2000/svg">
<path d="M374.197 164.361C358.954 180.848 354.161 173.254 331.992 173.254C309.823 173.254 309.823 171.107 287.654 171.107C265.485 171.107 265.485 160.969 243.316 160.969C221.147 160.969 221.147 158.39 198.978 158.39C176.809 158.39 176.809 163.062 154.641 163.062C132.472 163.062 132.472 161.474 110.303 161.474C88.1339 161.474 88.1339 170.71 65.9473 170.71C43.7784 170.71 44.5186 175.473 29.2753 158.985C13.1684 141.577 21.821 142.461 21.821 118.487C21.821 94.5131 18.0322 94.5131 18.0322 70.5391C18.0322 46.5651 6.5072 40.991 22.614 23.5833C37.8573 7.09553 43.7608 26.4515 65.9297 26.4515C88.0986 26.4515 88.081 15.2131 110.25 15.2131C132.419 15.2131 132.419 16.4578 154.588 16.4578C176.757 16.4578 176.757 11.9841 198.925 11.9841C221.094 11.9841 221.094 13.301 243.263 13.301C265.432 13.301 265.432 23.6735 287.601 23.6735C309.77 23.6735 309.77 15.8265 331.957 15.8265C354.143 15.8265 353.755 13.1567 368.999 29.6444C385.105 47.0522 366.126 46.5291 366.126 70.5031C366.126 94.4771 378.004 93.7375 382.321 117.297C386.639 140.856 390.269 146.917 374.18 164.343L374.197 164.361Z" fill="#D88F6F"/>
<path d="M370.123 147.881C366.553 151.424 363.592 153.675 360.87 155.074C357.989 156.555 355.333 157.105 352.431 157.181C349.799 157.249 346.989 156.929 343.591 156.543C343.189 156.497 342.779 156.45 342.36 156.403C338.422 155.961 333.781 155.495 328.008 155.495C316.618 155.495 310.934 154.978 305.235 154.459L305.229 154.458C299.495 153.936 293.744 153.412 282.268 153.412C271.039 153.412 265.466 151.015 259.81 148.582L259.793 148.575C254.02 146.091 248.158 143.575 236.528 143.575C225.148 143.575 219.469 142.953 213.774 142.33L213.767 142.329C208.03 141.701 202.273 141.071 190.788 141.071C179.263 141.071 173.476 142.217 167.724 143.357L167.712 143.36C162.032 144.486 156.385 145.605 145.048 145.605C133.647 145.605 127.954 145.222 122.25 144.837L122.246 144.837C116.516 144.451 110.774 144.065 99.3084 144.065C87.6956 144.065 81.845 146.353 76.0714 148.615L76.0579 148.62C70.3968 150.838 64.8078 153.027 53.5503 153.027C48.5704 153.027 44.6998 153.245 41.5567 153.422C41.0703 153.45 40.6012 153.476 40.1482 153.501C36.7444 153.685 34.3185 153.752 32.1345 153.354C27.8547 152.574 24.3194 149.973 16.4317 141.948L16.4314 141.948C8.14846 133.527 6.5017 129.783 6.64196 125.421C6.69631 123.731 7.01596 121.957 7.41503 119.743C7.56225 118.926 7.72028 118.049 7.87979 117.094C8.46335 113.601 9.02855 109.236 9.02855 103.35C9.02855 91.6417 8.04255 85.7658 7.06042 79.9201L7.0586 79.9092C6.08704 74.1265 5.11993 68.3702 5.11993 56.8215C5.11993 50.9152 4.36456 46.1427 3.50019 42.0558C3.17961 40.5401 2.85062 39.1432 2.54062 37.827C2.00324 35.5453 1.52294 33.5059 1.24249 31.51C0.810647 28.4368 0.887375 25.6286 2.03402 22.5827C3.18893 19.5148 5.4599 16.1248 9.55954 11.957L9.55982 11.9567C13.4059 8.04354 16.5502 6.3729 19.4007 5.9289C22.2593 5.48363 24.9969 6.24181 28.1192 7.56798C29.2873 8.0641 30.5022 8.63859 31.783 9.24428C37.2983 11.8524 44.0372 15.0391 53.5321 15.0391C65.1834 15.0391 71.0541 12.2422 76.8237 9.48874L76.839 9.48144C82.49 6.78458 88.0453 4.13341 99.2539 4.13341C110.662 4.13341 116.361 4.43437 122.067 4.73575L122.071 4.73594C127.798 5.03842 133.535 5.34126 144.994 5.34126C156.515 5.34126 162.3 4.24466 168.05 3.15309L168.062 3.15082C173.743 2.07253 179.393 1 190.734 1C202.141 1 207.838 1.31835 213.544 1.63716L213.548 1.63738C219.276 1.95743 225.013 2.27787 236.474 2.27787C247.698 2.27787 253.269 4.72941 258.925 7.21874L258.941 7.22586C264.714 9.7668 270.579 12.3433 282.214 12.3433C293.8 12.3433 299.632 10.405 305.402 8.48477L305.415 8.48035C311.08 6.5948 316.687 4.72858 327.972 4.72858C330.842 4.72858 333.346 4.68796 335.558 4.64835L336.216 4.63648C338.155 4.60137 339.855 4.57059 341.385 4.57377C344.792 4.58084 347.265 4.75812 349.489 5.39459C353.918 6.66157 357.568 9.79698 365.472 17.8384L365.472 17.8387C369.586 22.0207 371.304 24.9788 371.749 27.3706C372.184 29.7046 371.441 31.6893 370.068 34.0735C369.647 34.8052 369.171 35.5642 368.667 36.3677C365.874 40.8248 362.222 46.6508 362.222 56.7865C362.222 62.694 363 67.1229 364.26 70.8049C365.518 74.4837 367.242 77.3713 369.066 80.1854C369.4 80.7013 369.738 81.2155 370.079 81.7327C373.427 86.8243 376.964 92.2028 378.947 102.386C379.449 104.963 379.938 107.301 380.388 109.46C380.947 112.137 381.447 114.537 381.845 116.77C382.558 120.773 382.907 124.076 382.628 127.163C382.077 133.26 379.059 138.75 370.816 147.147L370.109 147.868L370.123 147.881Z" stroke="#505050" stroke-width="2"/>
<path d="M94.413 87.9556L105.453 61.9395H110.013L94.413 97.2196L78.813 61.9395H83.373L94.413 87.9556ZM118.561 96.0196C116.513 96.0196 114.689 95.5396 113.089 94.5796C111.521 93.5876 110.289 92.2276 109.393 90.4996C108.529 88.7716 108.097 86.7716 108.097 84.4996C108.097 82.1956 108.545 80.1796 109.441 78.4516C110.369 76.7235 111.649 75.3795 113.281 74.4195C114.945 73.4595 116.865 72.9795 119.041 72.9795C121.217 72.9795 123.073 73.4435 124.609 74.3716C126.177 75.2675 127.377 76.5635 128.209 78.2596C129.041 79.9556 129.457 81.9716 129.457 84.3076C129.457 84.5316 129.441 84.7716 129.409 85.0276C129.409 85.2516 129.409 85.3956 129.409 85.4596H110.545V82.1955H126.385L124.849 84.4036C124.945 84.2436 125.041 84.0036 125.137 83.6836C125.233 83.3316 125.281 83.0436 125.281 82.8196C125.281 81.5075 125.009 80.3715 124.465 79.4115C123.953 78.4515 123.233 77.6995 122.305 77.1556C121.377 76.6116 120.289 76.3396 119.041 76.3396C117.569 76.3396 116.305 76.6596 115.249 77.2995C114.225 77.9075 113.425 78.8035 112.849 79.9876C112.305 81.1396 112.017 82.5635 111.985 84.2596C111.985 85.9876 112.257 87.4596 112.801 88.6756C113.345 89.8916 114.145 90.8196 115.201 91.4596C116.257 92.0996 117.537 92.4196 119.041 92.4196C120.545 92.4196 121.873 92.0996 123.025 91.4596C124.177 90.7876 125.153 89.7796 125.953 88.4356L129.073 90.4036C127.921 92.2596 126.465 93.6676 124.705 94.6276C122.977 95.5556 120.929 96.0196 118.561 96.0196ZM138.56 73.4596V95.5396H134.72V73.4596H138.56ZM145.232 77.6836C144.72 77.2996 144.256 77.0276 143.84 76.8675C143.424 76.6755 142.896 76.5796 142.256 76.5796C141.296 76.5796 140.544 76.8196 140 77.2995C139.456 77.7796 139.072 78.4356 138.848 79.2675C138.656 80.0995 138.56 81.0436 138.56 82.0996H136.832C136.832 80.3396 137.136 78.7876 137.744 77.4436C138.384 76.0676 139.2 74.9795 140.192 74.1795C141.184 73.3795 142.192 72.9795 143.216 72.9795C144.016 72.9795 144.752 73.0915 145.424 73.3155C146.128 73.5075 146.768 73.9075 147.344 74.5155L145.232 77.6836ZM171.804 78.9795H176.364L188.364 95.5396H183.324L171.804 78.9795ZM165.804 61.9395H169.884V95.5396H165.804V61.9395ZM168.06 65.5396V61.9395H174.924C177.1 61.9395 179.036 62.3555 180.732 63.1875C182.46 63.9875 183.82 65.1395 184.812 66.6435C185.836 68.1475 186.348 69.9396 186.348 72.0196C186.348 74.0675 185.836 75.8595 184.812 77.3955C183.82 78.8995 182.46 80.0675 180.732 80.8996C179.036 81.6996 177.1 82.0996 174.924 82.0996H168.06V78.4995H174.924C176.364 78.4995 177.628 78.2435 178.716 77.7315C179.836 77.2195 180.7 76.4835 181.308 75.5235C181.948 74.5635 182.268 73.3955 182.268 72.0196C182.268 70.6435 181.948 69.4755 181.308 68.5155C180.7 67.5555 179.836 66.8195 178.716 66.3075C177.628 65.7956 176.364 65.5396 174.924 65.5396H168.06ZM200.967 96.0196C198.919 96.0196 197.095 95.5396 195.495 94.5796C193.927 93.5876 192.695 92.2276 191.799 90.4996C190.935 88.7716 190.503 86.7716 190.503 84.4996C190.503 82.1956 190.951 80.1796 191.847 78.4516C192.775 76.7235 194.055 75.3795 195.687 74.4195C197.351 73.4595 199.271 72.9795 201.447 72.9795C203.623 72.9795 205.479 73.4435 207.015 74.3716C208.583 75.2675 209.783 76.5635 210.615 78.2596C211.447 79.9556 211.863 81.9716 211.863 84.3076C211.863 84.5316 211.847 84.7716 211.815 85.0276C211.815 85.2516 211.815 85.3956 211.815 85.4596H192.951V82.1955H208.791L207.255 84.4036C207.351 84.2436 207.447 84.0036 207.543 83.6836C207.639 83.3316 207.687 83.0436 207.687 82.8196C207.687 81.5075 207.415 80.3715 206.871 79.4115C206.359 78.4515 205.639 77.6995 204.711 77.1556C203.783 76.6116 202.695 76.3396 201.447 76.3396C199.975 76.3396 198.711 76.6596 197.655 77.2995C196.631 77.9075 195.831 78.8035 195.255 79.9876C194.711 81.1396 194.423 82.5635 194.391 84.2596C194.391 85.9876 194.663 87.4596 195.207 88.6756C195.751 89.8916 196.551 90.8196 197.607 91.4596C198.663 92.0996 199.943 92.4196 201.447 92.4196C202.951 92.4196 204.279 92.0996 205.431 91.4596C206.583 90.7876 207.559 89.7796 208.359 88.4356L211.479 90.4036C210.327 92.2596 208.871 93.6676 207.111 94.6276C205.383 95.5556 203.335 96.0196 200.967 96.0196ZM218.854 84.4996C218.854 86.0356 219.174 87.3956 219.814 88.5796C220.486 89.7636 221.382 90.7076 222.502 91.4116C223.654 92.0836 224.95 92.4196 226.39 92.4196C227.574 92.4196 228.678 92.2436 229.702 91.8916C230.758 91.5076 231.67 91.0116 232.438 90.4036C233.206 89.7636 233.75 89.0916 234.07 88.3876V93.1876C233.302 94.0836 232.198 94.7876 230.758 95.2996C229.35 95.7796 227.894 96.0196 226.39 96.0196C224.246 96.0196 222.31 95.5236 220.582 94.5316C218.854 93.5396 217.478 92.1796 216.454 90.4516C215.462 88.6916 214.966 86.7076 214.966 84.4996C214.966 82.2596 215.462 80.2756 216.454 78.5476C217.478 76.8196 218.854 75.4595 220.582 74.4676C222.31 73.4755 224.246 72.9795 226.39 72.9795C227.894 72.9795 229.35 73.2355 230.758 73.7475C232.198 74.2276 233.302 74.9156 234.07 75.8116V80.6115C233.75 79.8755 233.206 79.2035 232.438 78.5956C231.67 77.9876 230.758 77.5076 229.702 77.1556C228.678 76.7716 227.574 76.5796 226.39 76.5796C224.95 76.5796 223.654 76.9156 222.502 77.5876C221.382 78.2596 220.486 79.2035 219.814 80.4195C219.174 81.6035 218.854 82.9635 218.854 84.4996ZM248.592 96.0196C246.544 96.0196 244.72 95.5396 243.12 94.5796C241.552 93.5876 240.32 92.2276 239.424 90.4996C238.56 88.7716 238.128 86.7716 238.128 84.4996C238.128 82.1956 238.576 80.1796 239.472 78.4516C240.4 76.7235 241.68 75.3795 243.312 74.4195C244.976 73.4595 246.896 72.9795 249.072 72.9795C251.248 72.9795 253.104 73.4435 254.64 74.3716C256.208 75.2675 257.408 76.5635 258.24 78.2596C259.072 79.9556 259.488 81.9716 259.488 84.3076C259.488 84.5316 259.472 84.7716 259.44 85.0276C259.44 85.2516 259.44 85.3956 259.44 85.4596H240.576V82.1955H256.416L254.88 84.4036C254.976 84.2436 255.072 84.0036 255.168 83.6836C255.264 83.3316 255.312 83.0436 255.312 82.8196C255.312 81.5075 255.04 80.3715 254.496 79.4115C253.984 78.4515 253.264 77.6995 252.336 77.1556C251.408 76.6116 250.32 76.3396 249.072 76.3396C247.6 76.3396 246.336 76.6596 245.28 77.2995C244.256 77.9075 243.456 78.8035 242.88 79.9876C242.336 81.1396 242.048 82.5635 242.016 84.2596C242.016 85.9876 242.288 87.4596 242.832 88.6756C243.376 89.8916 244.176 90.8196 245.232 91.4596C246.288 92.0996 247.568 92.4196 249.072 92.4196C250.576 92.4196 251.904 92.0996 253.056 91.4596C254.208 90.7876 255.184 89.7796 255.984 88.4356L259.104 90.4036C257.952 92.2596 256.496 93.6676 254.736 94.6276C253.008 95.5556 250.96 96.0196 248.592 96.0196ZM261.391 73.4596H272.431V77.0595H261.391V73.4596ZM264.991 65.7796H268.831V95.5396H264.991V65.7796ZM278.01 88.7236C278.01 89.5556 278.202 90.2756 278.586 90.8836C279.002 91.4916 279.562 91.9556 280.266 92.2756C281.002 92.5636 281.834 92.7076 282.762 92.7076C283.946 92.7076 285.002 92.4676 285.93 91.9876C286.89 91.5076 287.642 90.8356 288.186 89.9716C288.762 89.0756 289.05 88.0516 289.05 86.8996L289.818 89.7796C289.818 91.1876 289.386 92.3556 288.522 93.2836C287.69 94.2116 286.65 94.8996 285.402 95.3476C284.186 95.7956 282.97 96.0196 281.754 96.0196C280.41 96.0196 279.146 95.7476 277.962 95.2036C276.81 94.6276 275.882 93.8116 275.178 92.7556C274.474 91.6996 274.122 90.4196 274.122 88.9156C274.122 86.7716 274.874 85.0596 276.378 83.7796C277.914 82.4676 280.042 81.8116 282.762 81.8116C284.362 81.8116 285.69 82.0036 286.746 82.3875C287.834 82.7396 288.698 83.1556 289.338 83.6356C289.978 84.0836 290.41 84.4516 290.634 84.7396V86.9956C289.514 86.2276 288.362 85.6836 287.178 85.3636C285.994 85.0116 284.73 84.8356 283.386 84.8356C282.138 84.8356 281.114 84.9956 280.314 85.3156C279.546 85.6356 278.97 86.0836 278.586 86.6596C278.202 87.2356 278.01 87.9236 278.01 88.7236ZM277.434 78.5476L275.562 75.7155C276.394 75.1076 277.53 74.4995 278.97 73.8915C280.442 73.2835 282.202 72.9795 284.25 72.9795C285.978 72.9795 287.482 73.2515 288.762 73.7956C290.074 74.3076 291.082 75.0596 291.786 76.0515C292.522 77.0435 292.89 78.2595 292.89 79.6996V95.5396H289.05V80.2276C289.05 79.4595 288.922 78.8355 288.666 78.3556C288.41 77.8436 288.042 77.4436 287.562 77.1556C287.114 76.8675 286.586 76.6595 285.978 76.5315C285.37 76.4036 284.73 76.3396 284.058 76.3396C282.97 76.3396 281.978 76.4676 281.082 76.7235C280.218 76.9796 279.482 77.2836 278.874 77.6355C278.266 77.9875 277.786 78.2916 277.434 78.5476Z" fill="white"/>
</svg>
