<svg width="67" height="68" viewBox="0 0 67 68" fill="none" xmlns="http://www.w3.org/2000/svg">
<path d="M65.8419 6.18406C65.3925 4.33066 64.3161 2.98273 62.4252 2.43982C61.1522 2.07476 59.926 2.33685 58.7372 2.86105C55.8915 4.13409 53.6918 6.0811 52.4843 8.99225C51.6325 11.0516 51.9975 13.4105 54.01 14.9456C54.1411 15.0486 54.2628 15.1609 54.3657 15.2545C52.2315 18.2125 50.1254 21.1517 48.0005 24.1096C47.7759 23.9599 47.5606 23.8101 47.3453 23.6603C47.1113 23.5012 46.8773 23.3514 46.6432 23.2017C44.1159 21.6291 41.3732 20.59 38.4901 19.8974C38.3497 19.8599 38.1064 19.7476 38.1064 19.6633C38.0689 19.0924 38.0876 18.5214 38.0876 17.9972C38.5276 17.8942 38.902 17.838 39.2577 17.7351C39.7819 17.5853 40.1002 17.2015 40.2125 16.6867C40.2874 16.3591 40.3155 16.0033 40.3155 15.6664C40.3248 14.5244 40.3155 13.3917 40.3155 12.2497C40.3155 11.8004 40.3155 11.3511 40.3155 10.8831C40.7461 10.9018 41.0924 10.9299 41.4294 10.9393C42.2344 10.9673 43.0113 10.855 43.7415 10.4712C45.2485 9.67557 46.0067 7.90642 45.5574 6.24959C45.1175 4.61148 43.4419 3.3478 41.654 3.54437C40.7929 3.63798 40.3997 3.35716 39.913 2.73C38.2749 0.6145 35.3075 0.427287 33.3418 2.23389C33.2669 2.30877 33.1733 2.36493 33.0891 2.43046C33.0048 2.36493 32.9487 2.31813 32.8925 2.27133C30.4119 0.0809448 27.1825 1.00765 25.8814 3.29164C25.8159 3.40396 25.5912 3.46013 25.4415 3.47885C24.8049 3.52565 24.1497 3.44141 23.5412 3.58181C21.7627 4.00304 20.4616 6.04366 20.7705 7.81281C21.0888 9.64749 23.2043 11.2482 25.0764 11.0422C25.6755 10.9767 26.2558 10.8082 26.9017 10.6678C26.9017 10.8269 26.9017 10.9861 26.9017 11.1546C26.9017 12.8114 26.8923 14.4588 26.9017 16.1157C26.9111 17.2296 27.4446 17.8006 28.5585 17.9316C28.6428 17.941 28.727 17.9691 28.8394 17.9972C28.8394 18.3341 28.8206 18.643 28.8394 18.9519C28.8862 19.7382 28.8394 19.8225 28.0624 20.0097C25.5819 20.6088 23.1949 21.4606 21.0045 22.7992C20.5552 23.0706 20.1246 23.3889 19.666 23.6978C18.9077 22.8085 18.1495 21.9473 17.4194 21.0581C17.3164 20.9364 17.3071 20.6743 17.3445 20.4964C17.7002 18.8115 17.6534 17.1453 17.2228 15.4885C16.0808 11.0141 11.7282 7.68176 7.10401 7.70048C4.09925 7.70985 1.79654 9.50708 1.21618 12.3153C0.851118 14.1031 0.944725 15.8817 1.52508 17.6227C2.98534 21.9848 6.9168 24.7368 11.5222 24.6151C12.0277 24.6058 12.3553 24.7274 12.6455 25.158C13.2539 26.066 13.8998 26.9459 14.5551 27.8164C14.7704 28.0973 14.7142 28.247 14.5083 28.481C11.4005 32.1504 9.61265 36.4095 9.1727 41.174C8.66723 46.6968 10.0339 51.7796 13.1884 56.357C13.619 56.9841 14.0402 57.6113 14.4521 58.2384C14.293 58.3601 14.1432 58.4444 14.0589 58.5567C13.3475 59.4834 12.6174 60.3914 11.9434 61.3462C11.438 62.0576 11.8311 62.9281 12.6829 63.106C13.3943 63.2557 13.8811 62.8719 14.2742 62.3478C14.8827 61.5427 15.4818 60.7284 16.1089 59.9046C21.0045 64.5007 26.7426 66.9906 33.4822 67C40.2312 67.0093 45.9786 64.482 50.893 59.9046C51.6605 60.85 52.4 61.7393 53.1208 62.6286C53.6731 63.3119 54.4687 63.4523 55.0959 62.9843C55.6294 62.5724 55.6575 61.8048 55.1146 61.1028C54.5623 60.3914 53.9726 59.6987 53.3829 59.0154C53.1489 58.7439 52.8587 58.5193 52.5592 58.2384C52.6153 58.1542 52.7183 58.0044 52.8212 57.8453C53.5607 56.7314 54.3751 55.6549 55.0303 54.4942C57.3611 50.3942 58.7746 46.0696 58.2036 41.2489C57.642 36.5593 56.0226 32.3376 52.9991 28.687C52.7557 28.3968 52.7089 28.1909 52.8961 27.8352C54.0568 25.6167 55.1988 23.3795 56.3315 21.1423C56.9867 19.8506 57.6139 18.5494 58.2598 17.2577C58.578 17.3045 58.8588 17.37 59.1584 17.3887C61.9291 17.5198 64.4003 15.8817 65.43 13.242C66.3286 10.9112 66.4129 8.56166 65.8419 6.18406ZM28.596 9.81598C28.4088 9.65685 28.2777 9.4322 28.1841 9.32923C28.2496 8.78632 28.3339 8.36509 28.3526 7.94386C28.3713 7.41967 28.0718 7.13885 27.5663 7.27926C27.2761 7.35414 26.9766 7.56944 26.7894 7.80345C25.8814 8.92672 24.2995 8.95481 23.4008 7.81281C22.8486 7.11077 23.0171 6.38064 23.8501 6.05302C24.6645 5.73476 25.5163 5.69731 26.3775 5.76284C26.7707 5.79092 26.9672 5.67859 27.1357 5.29481C27.8752 3.59117 29.4665 2.96401 31.245 3.64734C32.1624 4.00304 32.9393 4.56468 33.5009 5.39777C33.5571 5.48202 33.6226 5.56626 33.7256 5.69731C33.9315 4.36811 34.6897 3.64734 35.9253 3.43204C37.2358 3.20739 38.2842 3.66606 39.0237 4.77997C39.0611 4.83614 39.1079 4.88294 39.1267 4.9391C39.37 5.80028 39.9691 5.89389 40.7648 5.83772C41.3358 5.80028 41.9255 5.97813 42.4871 6.13726C43.0207 6.28703 43.2921 6.73634 43.2921 7.27926C43.2921 7.83153 42.9364 8.1966 42.4497 8.42125C41.4668 8.8612 40.3716 8.58038 39.6228 7.72857C39.5105 7.59752 39.4075 7.44775 39.2577 7.37286C38.7522 7.12013 38.3497 7.38222 38.3497 7.95322C38.3591 8.33701 38.4246 8.73015 38.4153 9.11394C38.4153 9.31987 38.3497 9.55389 38.2374 9.71302C37.5822 10.6304 35.9534 10.9486 35.0361 10.284C34.7365 10.0687 34.5119 9.67557 34.3621 9.31987C34.2591 9.08585 34.1749 8.99225 33.9409 9.01097C33.8286 9.02033 33.7256 9.02033 33.6133 9.01097C33.1452 8.95481 32.8831 9.1233 32.5836 9.54453C31.5071 11.0609 30.0375 11.0984 28.596 9.81598ZM29.2044 15.994V12.6803C30.674 12.9143 32.0968 12.9705 33.3137 11.8566C34.6804 13.0735 36.3559 12.6991 37.994 12.7833V15.994H29.2044ZM35.7849 18.3997V19.3732H31.1514V18.3997H35.7849ZM15.5566 20.927C15.5754 20.9083 15.5941 20.8802 15.6128 20.8615C15.9404 22.5932 17.2135 23.6322 18.084 24.9615C17.5317 25.4482 17.0075 25.9162 16.4178 26.4311C15.5941 25.5044 14.8172 24.6245 13.956 23.6603C14.0402 23.6603 14.1151 23.6697 14.1994 23.6697C13.6845 23.2578 13.3382 22.6681 12.8608 22.2094C12.8046 22.2282 12.7578 22.2375 12.7017 22.2562C10.53 22.7617 6.83255 21.8818 5.34421 19.8038C4.46432 18.5775 3.64994 17.3419 3.39721 15.8161C3.19127 14.5525 3.26616 13.2981 3.62186 12.0719C4.02437 10.7052 5.1102 10.1623 6.36452 9.90959C6.92616 9.79726 7.55332 9.7879 8.11495 9.90023C10.8108 10.4619 12.9918 11.8004 14.4053 14.2436C14.995 15.2639 15.5286 16.5463 15.5098 17.707M54.3845 35.202C55.8073 38.1693 56.3783 41.3893 56.0132 44.6749C55.4797 49.4582 53.6731 53.736 50.3968 57.3117C46.6526 61.4023 41.991 63.7893 36.5057 64.6505C32.8083 65.2308 29.298 64.613 25.8159 63.4055C21.1917 61.8048 17.5785 58.9124 14.8452 54.9154C12.7391 51.8358 11.4848 48.4098 11.3163 44.6562C11.0448 38.6467 12.9357 33.386 16.9233 28.8648C20.3399 24.9989 24.6271 22.7711 29.6537 21.8818C30.7864 21.6852 31.9471 21.6572 33.2014 21.5448C42.8616 21.9754 50.116 26.2907 54.3845 35.202ZM55.4141 18.0065C54.0288 20.7773 52.6434 23.5386 51.2487 26.3C51.2393 26.3281 51.2019 26.3375 50.9772 26.5434C50.6683 26.1596 50.35 25.7852 50.0879 25.3827C50.0224 25.2797 50.0692 25.0363 50.1535 24.9147C51.2393 23.3795 52.3439 21.8537 53.4297 20.3186C54.01 19.4949 54.581 18.6524 55.152 17.8193C55.2269 17.707 55.3112 17.5947 55.3861 17.4917C55.4235 17.501 55.4609 17.5104 55.4984 17.5198C55.4797 17.6789 55.489 17.8661 55.4141 18.0065ZM63.1554 12.671C62.4814 14.0844 61.33 14.7771 59.7949 15.0298C57.5952 15.3855 56.0787 14.3652 54.8431 12.7271C54.1598 11.8192 54.0568 10.7895 54.5249 9.76918C54.8244 9.11394 55.1988 8.44933 55.6856 7.92514C57.0242 6.49297 58.5406 5.28545 60.4595 4.69573C61.5921 4.34938 62.6124 4.75189 63.2303 5.76284C63.6983 6.53041 63.9136 7.52263 63.9323 8.95481C63.9417 10.2559 63.717 11.5009 63.1554 12.671Z" fill="#FFFCEB"/>
<path d="M15.5566 20.927C15.5754 20.9083 15.5941 20.8802 15.6128 20.8615C15.9404 22.5932 17.2135 23.6322 18.084 24.9615C17.5317 25.4482 17.0075 25.9162 16.4178 26.4311C15.5941 25.5044 14.8172 24.6245 13.956 23.6603C14.0402 23.6603 14.1151 23.6697 14.1994 23.6697C13.6845 23.2578 13.3382 22.6681 12.8608 22.2094C12.8046 22.2282 12.7578 22.2375 12.7017 22.2562C10.53 22.7617 6.83255 21.8818 5.34421 19.8038C4.46432 18.5775 3.64994 17.3419 3.39721 15.8161C3.19127 14.5525 3.26616 13.2981 3.62186 12.0719C4.02437 10.7052 5.1102 10.1623 6.36452 9.90959C6.92616 9.79726 7.55332 9.7879 8.11495 9.90023C10.8108 10.4619 12.9918 11.8004 14.4053 14.2436C14.995 15.2639 15.5286 16.5463 15.5098 17.707M65.8419 6.18406C65.3925 4.33066 64.3161 2.98273 62.4252 2.43982C61.1522 2.07476 59.926 2.33685 58.7372 2.86105C55.8915 4.13409 53.6918 6.0811 52.4843 8.99225C51.6325 11.0516 51.9975 13.4105 54.01 14.9456C54.1411 15.0486 54.2628 15.1609 54.3657 15.2545C52.2315 18.2125 50.1254 21.1517 48.0005 24.1096C47.7759 23.9599 47.5606 23.8101 47.3453 23.6603C47.1113 23.5012 46.8773 23.3514 46.6432 23.2017C44.1159 21.6291 41.3732 20.59 38.4901 19.8974C38.3497 19.8599 38.1064 19.7476 38.1064 19.6633C38.0689 19.0924 38.0876 18.5214 38.0876 17.9972C38.5276 17.8942 38.902 17.838 39.2577 17.7351C39.7819 17.5853 40.1002 17.2015 40.2125 16.6867C40.2874 16.3591 40.3155 16.0033 40.3155 15.6664C40.3248 14.5244 40.3155 13.3917 40.3155 12.2497C40.3155 11.8004 40.3155 11.3511 40.3155 10.8831C40.7461 10.9018 41.0924 10.9299 41.4294 10.9393C42.2344 10.9673 43.0113 10.855 43.7415 10.4712C45.2485 9.67557 46.0067 7.90642 45.5574 6.24959C45.1175 4.61148 43.4419 3.3478 41.654 3.54437C40.7929 3.63798 40.3997 3.35716 39.913 2.73C38.2749 0.6145 35.3075 0.427287 33.3418 2.23389C33.2669 2.30877 33.1733 2.36493 33.0891 2.43046C33.0048 2.36493 32.9487 2.31813 32.8925 2.27133C30.4119 0.0809448 27.1825 1.00765 25.8814 3.29164C25.8159 3.40396 25.5912 3.46013 25.4415 3.47885C24.8049 3.52565 24.1497 3.4414 23.5412 3.58181C21.7627 4.00304 20.4616 6.04366 20.7705 7.81281C21.0888 9.64749 23.2043 11.2482 25.0764 11.0422C25.6755 10.9767 26.2558 10.8082 26.9017 10.6678C26.9017 10.8269 26.9017 10.9861 26.9017 11.1546C26.9017 12.8114 26.8923 14.4588 26.9017 16.1157C26.9111 17.2296 27.4446 17.8006 28.5585 17.9316C28.6428 17.941 28.727 17.9691 28.8394 17.9972C28.8394 18.3341 28.8206 18.643 28.8394 18.9519C28.8862 19.7382 28.8394 19.8225 28.0624 20.0097C25.5819 20.6088 23.1949 21.4606 21.0045 22.7992C20.5552 23.0706 20.1246 23.3889 19.666 23.6978C18.9077 22.8085 18.1495 21.9473 17.4194 21.0581C17.3164 20.9364 17.3071 20.6743 17.3445 20.4964C17.7002 18.8115 17.6534 17.1453 17.2228 15.4885C16.0808 11.0141 11.7282 7.68176 7.10401 7.70048C4.09925 7.70985 1.79654 9.50708 1.21618 12.3153C0.851118 14.1031 0.944725 15.8817 1.52508 17.6227C2.98534 21.9848 6.9168 24.7368 11.5222 24.6151C12.0277 24.6058 12.3553 24.7274 12.6455 25.158C13.2539 26.066 13.8998 26.9459 14.5551 27.8164C14.7704 28.0973 14.7142 28.247 14.5083 28.481C11.4005 32.1504 9.61265 36.4095 9.1727 41.174C8.66723 46.6968 10.0339 51.7796 13.1884 56.357C13.619 56.9841 14.0402 57.6113 14.4521 58.2384C14.293 58.3601 14.1432 58.4444 14.0589 58.5567C13.3475 59.4834 12.6174 60.3914 11.9434 61.3462C11.438 62.0576 11.8311 62.9281 12.6829 63.106C13.3943 63.2557 13.8811 62.8719 14.2742 62.3478C14.8827 61.5427 15.4818 60.7284 16.1089 59.9046C21.0045 64.5007 26.7426 66.9906 33.4822 67C40.2312 67.0093 45.9786 64.482 50.893 59.9046C51.6605 60.85 52.4 61.7393 53.1208 62.6286C53.6731 63.3119 54.4687 63.4523 55.0959 62.9843C55.6294 62.5724 55.6575 61.8048 55.1146 61.1028C54.5623 60.3914 53.9726 59.6987 53.3829 59.0154C53.1489 58.7439 52.8587 58.5193 52.5592 58.2384C52.6153 58.1542 52.7183 58.0044 52.8212 57.8453C53.5607 56.7314 54.3751 55.6549 55.0303 54.4942C57.3611 50.3942 58.7746 46.0696 58.2036 41.2489C57.642 36.5593 56.0226 32.3376 52.9991 28.687C52.7557 28.3968 52.7089 28.1909 52.8961 27.8352C54.0568 25.6167 55.1988 23.3795 56.3315 21.1423C56.9867 19.8506 57.6139 18.5494 58.2598 17.2577C58.578 17.3045 58.8588 17.37 59.1584 17.3887C61.9291 17.5198 64.4003 15.8817 65.43 13.242C66.3286 10.9112 66.4129 8.56166 65.8419 6.18406ZM28.596 9.81598C28.4088 9.65685 28.2777 9.4322 28.1841 9.32923C28.2496 8.78632 28.3339 8.36509 28.3526 7.94386C28.3713 7.41967 28.0718 7.13885 27.5663 7.27926C27.2761 7.35414 26.9766 7.56944 26.7894 7.80345C25.8814 8.92672 24.2995 8.95481 23.4008 7.81281C22.8486 7.11077 23.0171 6.38064 23.8501 6.05302C24.6645 5.73476 25.5163 5.69731 26.3775 5.76284C26.7707 5.79092 26.9672 5.67859 27.1357 5.29481C27.8752 3.59117 29.4665 2.96401 31.245 3.64734C32.1624 4.00304 32.9393 4.56468 33.5009 5.39777C33.5571 5.48202 33.6226 5.56626 33.7256 5.69731C33.9315 4.36811 34.6897 3.64734 35.9253 3.43204C37.2358 3.20739 38.2842 3.66606 39.0237 4.77997C39.0611 4.83614 39.1079 4.88294 39.1267 4.9391C39.37 5.80028 39.9691 5.89389 40.7648 5.83772C41.3358 5.80028 41.9255 5.97813 42.4871 6.13726C43.0207 6.28703 43.2921 6.73634 43.2921 7.27926C43.2921 7.83153 42.9364 8.1966 42.4497 8.42125C41.4668 8.8612 40.3716 8.58038 39.6228 7.72857C39.5105 7.59752 39.4075 7.44775 39.2577 7.37286C38.7522 7.12013 38.3497 7.38222 38.3497 7.95322C38.3591 8.33701 38.4246 8.73015 38.4153 9.11394C38.4153 9.31987 38.3497 9.55389 38.2374 9.71302C37.5822 10.6304 35.9534 10.9486 35.0361 10.284C34.7365 10.0687 34.5119 9.67557 34.3621 9.31987C34.2591 9.08585 34.1749 8.99225 33.9409 9.01097C33.8286 9.02033 33.7256 9.02033 33.6133 9.01097C33.1452 8.95481 32.8831 9.1233 32.5836 9.54453C31.5071 11.0609 30.0375 11.0984 28.596 9.81598ZM29.2044 15.994V12.6803C30.674 12.9143 32.0968 12.9705 33.3137 11.8566C34.6804 13.0735 36.3559 12.6991 37.994 12.7833V15.994H29.2044ZM35.7849 18.3997V19.3732H31.1514V18.3997H35.7849ZM54.3845 35.202C55.8073 38.1693 56.3783 41.3893 56.0132 44.6749C55.4797 49.4582 53.6731 53.736 50.3968 57.3117C46.6526 61.4023 41.991 63.7893 36.5057 64.6505C32.8083 65.2308 29.298 64.613 25.8159 63.4055C21.1917 61.8048 17.5785 58.9124 14.8452 54.9154C12.7391 51.8358 11.4848 48.4098 11.3163 44.6562C11.0448 38.6467 12.9357 33.386 16.9233 28.8648C20.3399 24.9989 24.6271 22.7711 29.6537 21.8818C30.7864 21.6852 31.9471 21.6572 33.2014 21.5448C42.8616 21.9754 50.116 26.2907 54.3845 35.202ZM55.4141 18.0065C54.0288 20.7773 52.6434 23.5386 51.2487 26.3C51.2393 26.3281 51.2019 26.3375 50.9772 26.5434C50.6683 26.1596 50.35 25.7852 50.0879 25.3827C50.0224 25.2797 50.0692 25.0363 50.1535 24.9147C51.2393 23.3795 52.3439 21.8537 53.4297 20.3186C54.01 19.4949 54.581 18.6524 55.152 17.8193C55.2269 17.707 55.3112 17.5947 55.3861 17.4917C55.4235 17.501 55.4609 17.5104 55.4984 17.5198C55.4797 17.6789 55.489 17.8661 55.4141 18.0065ZM63.1554 12.671C62.4814 14.0844 61.33 14.7771 59.7949 15.0298C57.5952 15.3855 56.0787 14.3652 54.8431 12.7271C54.1598 11.8192 54.0568 10.7895 54.5249 9.76918C54.8244 9.11394 55.1988 8.44933 55.6856 7.92514C57.0242 6.49297 58.5406 5.28545 60.4595 4.69573C61.5921 4.34938 62.6124 4.75189 63.2302 5.76284C63.6983 6.53041 63.9136 7.52263 63.9323 8.95481C63.9417 10.2559 63.717 11.5009 63.1554 12.671Z" stroke="#FFFCE9" stroke-miterlimit="10"/>
<path d="M14.1338 43.692C14.19 40.6966 14.658 38.3752 15.7251 36.138C16.7828 33.9102 18.0652 31.8789 19.825 30.1566C23.017 27.0301 26.8081 25.0738 31.2637 24.4841C33.8192 24.1471 36.3278 24.4185 38.8084 25.1019C44.3686 26.6276 48.6651 29.8196 51.4826 34.8837C55.1052 41.3893 54.3189 49.0931 49.5169 54.9248C46.1284 59.0341 41.7476 61.3274 36.515 62.0482C31.7505 62.6941 27.248 61.8329 23.1855 59.2775C18.4584 56.3101 15.6315 51.9387 14.4989 46.4909C14.2648 45.3957 14.2087 44.263 14.1338 43.692ZM33.66 60.148C35.1671 60.1761 36.7022 59.9514 38.2186 59.5676C43.3295 58.2852 47.2984 55.4303 49.7416 50.7593C51.7354 46.9495 52.1472 42.8589 50.8461 38.7028C48.2345 30.3812 39.3232 25.4388 31.1888 26.6464C26.78 27.3016 23.1481 29.3235 20.3024 32.7214C17.1853 36.4376 15.6408 40.7341 16.4739 45.5642C17.5598 51.8732 20.9483 56.5254 27.0702 58.9218C29.1669 59.7455 31.3386 60.1761 33.66 60.148Z" fill="#FFFCEB"/>
<path d="M34.5401 55.8982C34.5401 56.4879 34.5588 57.0776 34.5401 57.6674C34.5214 58.2384 34.2687 58.5379 33.81 58.5847C33.2015 58.6409 32.7242 58.3413 32.6305 57.7797C32.5744 57.4802 32.5744 57.1619 32.5837 56.853C32.5837 55.9544 32.5837 55.0464 32.6212 54.1478C32.6399 53.4551 32.9862 53.1087 33.5666 53.1181C34.1844 53.1275 34.5495 53.5206 34.5588 54.2227C34.5401 54.7749 34.5401 55.3366 34.5401 55.8982Z" fill="#FFFCEB"/>
<path d="M21.6411 33.2362C21.8751 32.9367 22.0249 32.6372 22.2776 32.4406C22.6146 32.1785 23.0546 32.1972 23.3635 32.4687C24.2621 33.283 25.142 34.1161 25.9844 34.9867C26.3214 35.333 26.1997 35.9508 25.8347 36.2971C25.479 36.6341 25.0016 36.6716 24.6084 36.3252C23.7941 35.6045 22.9797 34.8743 22.2028 34.1255C21.9875 33.9102 21.8658 33.5919 21.6411 33.2362Z" fill="#FFFCEB"/>
<path d="M47.6262 42.0727C48.0943 42.0727 48.5623 42.0446 49.0303 42.082C49.6949 42.1195 50.1068 42.5969 50.1068 43.2615C50.1068 43.8606 49.7137 44.2443 49.0022 44.2631C48.113 44.2818 47.2237 44.2818 46.3438 44.2443C45.7073 44.2256 45.3516 43.7857 45.3703 43.1117C45.3797 42.4565 45.7167 42.1101 46.3719 42.0727C46.5872 42.0633 46.8119 42.054 47.0272 42.054C47.2331 42.054 47.4297 42.054 47.6356 42.054C47.6262 42.054 47.6262 42.0633 47.6262 42.0727Z" fill="#FFFCEB"/>
<path d="M42.0283 35.3424C42.1781 35.0803 42.2811 34.7807 42.4776 34.5654C43.0861 33.9008 43.7413 33.2737 44.3591 32.6091C44.9114 32.01 45.9223 32.3283 46.1844 33.049C46.2593 33.255 46.2032 33.6294 46.0534 33.7698C45.1828 34.6497 44.2936 35.5202 43.3388 36.3252C42.8614 36.7277 42.1126 36.138 42.0283 35.3424Z" fill="#FFFCEB"/>
<path d="M19.8061 42.082C20.2273 42.082 20.6486 42.0727 21.0698 42.082C21.6782 42.1008 22.0339 42.4284 22.0714 42.9713C22.1182 43.5516 21.7812 44.0758 21.2008 44.0946C20.2086 44.1414 19.2164 44.0852 18.2335 44.029C18.0744 44.0197 17.8217 43.795 17.7842 43.6265C17.7093 43.2708 17.6719 42.8777 17.7655 42.5407C17.8217 42.3441 18.1399 42.1101 18.3646 42.082C18.8326 42.0071 19.3287 42.0633 19.8061 42.0633C19.8061 42.0727 19.8061 42.0727 19.8061 42.082Z" fill="#FFFCEB"/>
<path d="M26.0127 51.4426C25.8629 51.7515 25.7881 52.0042 25.6383 52.1821C25.0766 52.828 24.4869 53.4551 23.8878 54.0636C23.5228 54.4286 23.0735 54.3725 22.5493 53.9512C22.1749 53.6517 22.0906 53.3147 22.4557 52.8935C23.1296 52.0978 23.8504 51.349 24.6086 50.6376C24.749 50.5065 25.1983 50.5533 25.4043 50.675C25.6664 50.8435 25.8161 51.1805 26.0127 51.4426Z" fill="#FFFCEB"/>
<path d="M45.5858 53.2118C45.5015 53.6424 45.3611 53.9606 44.9961 54.1291C44.6029 54.307 44.2004 54.3538 43.8634 54.0449C43.3673 53.5956 42.8899 53.1369 42.4032 52.6689C42.0007 52.2851 42.0194 51.7796 42.2441 51.3771C42.3938 51.115 42.7776 50.9559 43.0772 50.8155C43.1895 50.7687 43.4141 50.8529 43.5265 50.9465C44.0881 51.4426 44.6404 51.9387 45.1646 52.4723C45.3611 52.6689 45.4454 52.959 45.5858 53.2118Z" fill="#FFFCEB"/>
<path d="M33.922 45.7514C35.0542 45.7514 35.972 44.8336 35.972 43.7015C35.972 42.5693 35.0542 41.6515 33.922 41.6515C32.7899 41.6515 31.8721 42.5693 31.8721 43.7015C31.8721 44.8336 32.7899 45.7514 33.922 45.7514Z" fill="#FFFCEB"/>
<path d="M33.941 43.9635C33.5385 43.9635 33.2202 43.6358 33.2202 43.2427V28.921C33.2202 28.5185 33.5478 28.2002 33.941 28.2002C34.3435 28.2002 34.6617 28.5278 34.6617 28.921V43.2427C34.6617 43.6452 34.3341 43.9635 33.941 43.9635Z" fill="#FFFCEB"/>
<path d="M41.7381 48.3911L34.9985 43.4674C34.6802 43.2334 34.2215 43.2989 33.9875 43.6266L33.8846 43.767C33.6505 44.0852 33.7161 44.5439 34.0437 44.7779L40.7833 49.7016C41.1016 49.9356 41.5603 49.8701 41.7943 49.5425L41.8972 49.4021C42.1313 49.0744 42.0564 48.6251 41.7381 48.3911Z" fill="#FFFCEB"/>
</svg>
